999
"DXF R12 Output" (www.mydxf.blogspot.com)
 0 
SECTION
 2 
HEADER
 9 
$ACADVER
 1 
AC1009
 9 
$EXTMIN
 10 
 0 
 20 
 0 
 9 
$EXTMAX
 10 
 8.5 
 20 
 11 
 0 
ENDSEC
 0 
SECTION
 2 
ENTITIES
0
LINE
8
Layer 1
10
11984.900000
20
-27422.700000
11
-2776.400000
21
-27422.135556
0
LINE
8
Layer 1
10
-3785.090000
20
-26934.200000
11
-2814.240000
21
-26934.200000
0
LINE
8
Layer 1
10
-2814.240000
20
-26934.200000
11
-2776.422300
21
-27422.162000
0
LINE
8
Layer 1
10
-2815.940000
20
-21725.800000
11
-4286.320000
21
-21728.622220
0
LINE
8
Layer 1
10
-4286.310000
20
-21728.600000
11
-3785.366000
21
-26934.180000
0
LINE
8
Layer 1
10
12096.700000
20
-27312.600000
11
12096.417778
21
-21174.270000
0
LINE
8
Layer 1
10
11986.300000
20
-21062.300000
11
4787.100000
21
-21062.582222
0
LINE
8
Layer 1
10
4787.120000
20
-21062.500000
11
-2815.940000
21
-21725.722000
0
LINE
8
Layer 1
10
11984.900000
20
-27422.700000
11
11990.414136
21
-27422.646169
0
LINE
8
Layer 1
10
11990.414136
20
-27422.646169
11
11995.894285
21
-27422.318415
0
LINE
8
Layer 1
10
11995.894285
20
-27422.318415
11
12001.331116
21
-27421.720481
0
LINE
8
Layer 1
10
12001.331116
20
-27421.720481
11
12006.715297
21
-27420.856107
0
LINE
8
Layer 1
10
12006.715297
20
-27420.856107
11
12012.037496
21
-27419.729033
0
LINE
8
Layer 1
10
12012.037496
20
-27419.729033
11
12017.288381
21
-27418.343001
0
LINE
8
Layer 1
10
12017.288381
20
-27418.343001
11
12022.458620
21
-27416.701750
0
LINE
8
Layer 1
10
12022.458620
20
-27416.701750
11
12027.538883
21
-27414.809023
0
LINE
8
Layer 1
10
12027.538883
20
-27414.809023
11
12032.519837
21
-27412.668559
0
LINE
8
Layer 1
10
12032.519837
20
-27412.668559
11
12037.392150
21
-27410.284100
0
LINE
8
Layer 1
10
12037.392150
20
-27410.284100
11
12042.146490
21
-27407.659385
0
LINE
8
Layer 1
10
12042.146490
20
-27407.659385
11
12046.773527
21
-27404.798157
0
LINE
8
Layer 1
10
12046.773527
20
-27404.798157
11
12051.263927
21
-27401.704155
0
LINE
8
Layer 1
10
12051.263927
20
-27401.704155
11
12055.608361
21
-27398.381121
0
LINE
8
Layer 1
10
12055.608361
20
-27398.381121
11
12059.797494
21
-27394.832795
0
LINE
8
Layer 1
10
12059.797494
20
-27394.832795
11
12063.821997
21
-27391.062919
0
LINE
8
Layer 1
10
12063.821997
20
-27391.062919
11
12067.652862
21
-27387.096425
0
LINE
8
Layer 1
10
12067.652862
20
-27387.096425
11
12071.264714
21
-27382.961938
0
LINE
8
Layer 1
10
12071.264714
20
-27382.961938
11
12074.653671
21
-27378.668732
0
LINE
8
Layer 1
10
12074.653671
20
-27378.668732
11
12077.815851
21
-27374.226079
0
LINE
8
Layer 1
10
12077.815851
20
-27374.226079
11
12080.747369
21
-27369.643253
0
LINE
8
Layer 1
10
12080.747369
20
-27369.643253
11
12083.444345
21
-27364.929528
0
LINE
8
Layer 1
10
12083.444345
20
-27364.929528
11
12085.902894
21
-27360.094177
0
LINE
8
Layer 1
10
12085.902894
20
-27360.094177
11
12088.119134
21
-27355.146474
0
LINE
8
Layer 1
10
12088.119134
20
-27355.146474
11
12090.089182
21
-27350.095692
0
LINE
8
Layer 1
10
12090.089182
20
-27350.095692
11
12091.809156
21
-27344.951106
0
LINE
8
Layer 1
10
12091.809156
20
-27344.951106
11
12093.275173
21
-27339.721988
0
LINE
8
Layer 1
10
12093.275173
20
-27339.721988
11
12094.483349
21
-27334.417612
0
LINE
8
Layer 1
10
12094.483349
20
-27334.417612
11
12095.429803
21
-27329.047251
0
LINE
8
Layer 1
10
12095.429803
20
-27329.047251
11
12096.110651
21
-27323.620180
0
LINE
8
Layer 1
10
12096.110651
20
-27323.620180
11
12096.522011
21
-27318.145672
0
LINE
8
Layer 1
10
12096.522011
20
-27318.145672
11
12096.660000
21
-27312.633000
0
LINE
8
Layer 1
10
12096.400000
20
-21174.300000
11
12096.346169
21
-21168.785864
0
LINE
8
Layer 1
10
12096.346169
20
-21168.785864
11
12096.018415
21
-21163.305715
0
LINE
8
Layer 1
10
12096.018415
20
-21163.305715
11
12095.420481
21
-21157.868884
0
LINE
8
Layer 1
10
12095.420481
20
-21157.868884
11
12094.556107
21
-21152.484703
0
LINE
8
Layer 1
10
12094.556107
20
-21152.484703
11
12093.429033
21
-21147.162504
0
LINE
8
Layer 1
10
12093.429033
20
-21147.162504
11
12092.043001
21
-21141.911619
0
LINE
8
Layer 1
10
12092.043001
20
-21141.911619
11
12090.401750
21
-21136.741380
0
LINE
8
Layer 1
10
12090.401750
20
-21136.741380
11
12088.509023
21
-21131.661117
0
LINE
8
Layer 1
10
12088.509023
20
-21131.661117
11
12086.368559
21
-21126.680163
0
LINE
8
Layer 1
10
12086.368559
20
-21126.680163
11
12083.984100
21
-21121.807850
0
LINE
8
Layer 1
10
12083.984100
20
-21121.807850
11
12081.359385
21
-21117.053510
0
LINE
8
Layer 1
10
12081.359385
20
-21117.053510
11
12078.498157
21
-21112.426473
0
LINE
8
Layer 1
10
12078.498157
20
-21112.426473
11
12075.404155
21
-21107.936073
0
LINE
8
Layer 1
10
12075.404155
20
-21107.936073
11
12072.081121
21
-21103.591639
0
LINE
8
Layer 1
10
12072.081121
20
-21103.591639
11
12068.532795
21
-21099.402506
0
LINE
8
Layer 1
10
12068.532795
20
-21099.402506
11
12064.762919
21
-21095.378003
0
LINE
8
Layer 1
10
12064.762919
20
-21095.378003
11
12060.796425
21
-21091.547138
0
LINE
8
Layer 1
10
12060.796425
20
-21091.547138
11
12056.661938
21
-21087.935286
0
LINE
8
Layer 1
10
12056.661938
20
-21087.935286
11
12052.368732
21
-21084.546329
0
LINE
8
Layer 1
10
12052.368732
20
-21084.546329
11
12047.926079
21
-21081.384149
0
LINE
8
Layer 1
10
12047.926079
20
-21081.384149
11
12043.343253
21
-21078.452631
0
LINE
8
Layer 1
10
12043.343253
20
-21078.452631
11
12038.629528
21
-21075.755655
0
LINE
8
Layer 1
10
12038.629528
20
-21075.755655
11
12033.794177
21
-21073.297106
0
LINE
8
Layer 1
10
12033.794177
20
-21073.297106
11
12028.846474
21
-21071.080866
0
LINE
8
Layer 1
10
12028.846474
20
-21071.080866
11
12023.795692
21
-21069.110818
0
LINE
8
Layer 1
10
12023.795692
20
-21069.110818
11
12018.651106
21
-21067.390844
0
LINE
8
Layer 1
10
12018.651106
20
-21067.390844
11
12013.421988
21
-21065.924827
0
LINE
8
Layer 1
10
12013.421988
20
-21065.924827
11
12008.117612
21
-21064.716651
0
LINE
8
Layer 1
10
12008.117612
20
-21064.716651
11
12002.747251
21
-21063.770197
0
LINE
8
Layer 1
10
12002.747251
20
-21063.770197
11
11997.320180
21
-21063.089349
0
LINE
8
Layer 1
10
11997.320180
20
-21063.089349
11
11991.845672
21
-21062.677989
0
LINE
8
Layer 1
10
11991.845672
20
-21062.677989
11
11986.333000
21
-21062.540000
0
LINE
8
Layer 1
10
-5349.160000
20
-27761.900000
11
-20852.200000
21
-27761.900000
0
LINE
8
Layer 1
10
-5386.980000
20
-27273.400000
11
-5349.162300
21
-27761.926000
0
LINE
8
Layer 1
10
-6357.820000
20
-27273.400000
11
-5386.980000
21
-27273.400000
0
LINE
8
Layer 1
10
-6858.490000
20
-22067.800000
11
-7192.923000
21
-22069.211110
0
LINE
8
Layer 1
10
-7192.920000
20
-22069.200000
11
-14937.090000
21
-21394.689000
0
LINE
8
Layer 1
10
-14937.100000
20
-21394.700000
11
-20851.630000
21
-21394.982222
0
LINE
8
Layer 1
10
-20962.000000
20
-21505.100000
11
-20962.282222
21
-27649.920000
0
LINE
8
Layer 1
10
-6858.490000
20
-22067.800000
11
-6357.546000
21
-27273.380000
0
LINE
8
Layer 1
10
-20851.600000
20
-21395.000000
11
-20857.076730
21
-21395.108160
0
LINE
8
Layer 1
10
-20857.076730
20
-21395.108160
11
-20862.517426
21
-21395.486330
0
LINE
8
Layer 1
10
-20862.517426
20
-21395.486330
11
-20867.912962
21
-21396.130772
0
LINE
8
Layer 1
10
-20867.912962
20
-21396.130772
11
-20873.254213
21
-21397.037745
0
LINE
8
Layer 1
10
-20873.254213
20
-21397.037745
11
-20878.532056
21
-21398.203512
0
LINE
8
Layer 1
10
-20878.532056
20
-21398.203512
11
-20883.737365
21
-21399.624334
0
LINE
8
Layer 1
10
-20883.737365
20
-21399.624334
11
-20888.861015
21
-21401.296473
0
LINE
8
Layer 1
10
-20888.861015
20
-21401.296473
11
-20893.893883
21
-21403.216189
0
LINE
8
Layer 1
10
-20893.893883
20
-21403.216189
11
-20898.826843
21
-21405.379745
0
LINE
8
Layer 1
10
-20898.826843
20
-21405.379745
11
-20903.650771
21
-21407.783401
0
LINE
8
Layer 1
10
-20903.650771
20
-21407.783401
11
-20908.356542
21
-21410.423420
0
LINE
8
Layer 1
10
-20908.356542
20
-21410.423420
11
-20912.935031
21
-21413.296061
0
LINE
8
Layer 1
10
-20912.935031
20
-21413.296061
11
-20917.377114
21
-21416.397588
0
LINE
8
Layer 1
10
-20917.377114
20
-21416.397588
11
-20921.673666
21
-21419.724260
0
LINE
8
Layer 1
10
-20921.673666
20
-21419.724260
11
-20925.815563
21
-21423.272340
0
LINE
8
Layer 1
10
-20925.815563
20
-21423.272340
11
-20929.793679
21
-21427.038089
0
LINE
8
Layer 1
10
-20929.793679
20
-21427.038089
11
-20933.579711
21
-21430.996907
0
LINE
8
Layer 1
10
-20933.579711
20
-21430.996907
11
-20937.148914
21
-21435.120615
0
LINE
8
Layer 1
10
-20937.148914
20
-21435.120615
11
-20940.497503
21
-21439.400108
0
LINE
8
Layer 1
10
-20940.497503
20
-21439.400108
11
-20943.621693
21
-21443.826282
0
LINE
8
Layer 1
10
-20943.621693
20
-21443.826282
11
-20946.517698
21
-21448.390029
0
LINE
8
Layer 1
10
-20946.517698
20
-21448.390029
11
-20949.181733
21
-21453.082245
0
LINE
8
Layer 1
10
-20949.181733
20
-21453.082245
11
-20951.610013
21
-21457.893825
0
LINE
8
Layer 1
10
-20951.610013
20
-21457.893825
11
-20953.798753
21
-21462.815663
0
LINE
8
Layer 1
10
-20953.798753
20
-21462.815663
11
-20955.744168
21
-21467.838653
0
LINE
8
Layer 1
10
-20955.744168
20
-21467.838653
11
-20957.442471
21
-21472.953690
0
LINE
8
Layer 1
10
-20957.442471
20
-21472.953690
11
-20958.889880
21
-21478.151669
0
LINE
8
Layer 1
10
-20958.889880
20
-21478.151669
11
-20960.082607
21
-21483.423485
0
LINE
8
Layer 1
10
-20960.082607
20
-21483.423485
11
-20961.016867
21
-21488.760031
0
LINE
8
Layer 1
10
-20961.016867
20
-21488.760031
11
-20961.688877
21
-21494.152202
0
LINE
8
Layer 1
10
-20961.688877
20
-21494.152202
11
-20962.094849
21
-21499.590894
0
LINE
8
Layer 1
10
-20962.094849
20
-21499.590894
11
-20962.231000
21
-21505.067000
0
LINE
8
Layer 1
10
-20962.200000
20
-27650.200000
11
-20962.146169
21
-27655.714136
0
LINE
8
Layer 1
10
-20962.146169
20
-27655.714136
11
-20961.818415
21
-27661.194285
0
LINE
8
Layer 1
10
-20961.818415
20
-27661.194285
11
-20961.220481
21
-27666.631116
0
LINE
8
Layer 1
10
-20961.220481
20
-27666.631116
11
-20960.356107
21
-27672.015297
0
LINE
8
Layer 1
10
-20960.356107
20
-27672.015297
11
-20959.229033
21
-27677.337496
0
LINE
8
Layer 1
10
-20959.229033
20
-27677.337496
11
-20957.843001
21
-27682.588381
0
LINE
8
Layer 1
10
-20957.843001
20
-27682.588381
11
-20956.201750
21
-27687.758620
0
LINE
8
Layer 1
10
-20956.201750
20
-27687.758620
11
-20954.309023
21
-27692.838883
0
LINE
8
Layer 1
10
-20954.309023
20
-27692.838883
11
-20952.168559
21
-27697.819837
0
LINE
8
Layer 1
10
-20952.168559
20
-27697.819837
11
-20949.784100
21
-27702.692150
0
LINE
8
Layer 1
10
-20949.784100
20
-27702.692150
11
-20947.159385
21
-27707.446490
0
LINE
8
Layer 1
10
-20947.159385
20
-27707.446490
11
-20944.298157
21
-27712.073527
0
LINE
8
Layer 1
10
-20944.298157
20
-27712.073527
11
-20941.204155
21
-27716.563927
0
LINE
8
Layer 1
10
-20941.204155
20
-27716.563927
11
-20937.881121
21
-27720.908361
0
LINE
8
Layer 1
10
-20937.881121
20
-27720.908361
11
-20934.332795
21
-27725.097494
0
LINE
8
Layer 1
10
-20934.332795
20
-27725.097494
11
-20930.562919
21
-27729.121997
0
LINE
8
Layer 1
10
-20930.562919
20
-27729.121997
11
-20926.596425
21
-27732.952862
0
LINE
8
Layer 1
10
-20926.596425
20
-27732.952862
11
-20922.461938
21
-27736.564714
0
LINE
8
Layer 1
10
-20922.461938
20
-27736.564714
11
-20918.168732
21
-27739.953671
0
LINE
8
Layer 1
10
-20918.168732
20
-27739.953671
11
-20913.726079
21
-27743.115851
0
LINE
8
Layer 1
10
-20913.726079
20
-27743.115851
11
-20909.143253
21
-27746.047369
0
LINE
8
Layer 1
10
-20909.143253
20
-27746.047369
11
-20904.429528
21
-27748.744345
0
LINE
8
Layer 1
10
-20904.429528
20
-27748.744345
11
-20899.594177
21
-27751.202894
0
LINE
8
Layer 1
10
-20899.594177
20
-27751.202894
11
-20894.646474
21
-27753.419134
0
LINE
8
Layer 1
10
-20894.646474
20
-27753.419134
11
-20889.595692
21
-27755.389182
0
LINE
8
Layer 1
10
-20889.595692
20
-27755.389182
11
-20884.451106
21
-27757.109156
0
LINE
8
Layer 1
10
-20884.451106
20
-27757.109156
11
-20879.221988
21
-27758.575173
0
LINE
8
Layer 1
10
-20879.221988
20
-27758.575173
11
-20873.917612
21
-27759.783349
0
LINE
8
Layer 1
10
-20873.917612
20
-27759.783349
11
-20868.547251
21
-27760.729803
0
LINE
8
Layer 1
10
-20868.547251
20
-27760.729803
11
-20863.120180
21
-27761.410651
0
LINE
8
Layer 1
10
-20863.120180
20
-27761.410651
11
-20857.645672
21
-27761.822011
0
LINE
8
Layer 1
10
-20857.645672
20
-27761.822011
11
-20852.133000
21
-27761.960000
0
LINE
8
Layer 1
10
-20690.500000
20
-10083.300000
11
-6511.700000
21
-10083.017778
0
LINE
8
Layer 1
10
-6696.490000
20
-8150.590000
11
-7030.923000
21
-8152.001110
0
LINE
8
Layer 1
10
-7030.920000
20
-8152.010000
11
-14775.090000
21
-7477.499000
0
LINE
8
Layer 1
10
-14775.100000
20
-7477.490000
11
-20689.630000
21
-7477.772222
0
LINE
8
Layer 1
10
-20800.000000
20
-7587.840000
11
-20800.564444
21
-9971.200000
0
LINE
8
Layer 1
10
-6696.490000
20
-8150.590000
11
-6511.635000
21
-10082.960000
0
LINE
8
Layer 1
10
-20689.600000
20
-7477.780000
11
-20695.076730
21
-7477.888160
0
LINE
8
Layer 1
10
-20695.076730
20
-7477.888160
11
-20700.517426
21
-7478.266330
0
LINE
8
Layer 1
10
-20700.517426
20
-7478.266330
11
-20705.912962
21
-7478.910772
0
LINE
8
Layer 1
10
-20705.912962
20
-7478.910772
11
-20711.254213
21
-7479.817745
0
LINE
8
Layer 1
10
-20711.254213
20
-7479.817745
11
-20716.532056
21
-7480.983512
0
LINE
8
Layer 1
10
-20716.532056
20
-7480.983512
11
-20721.737365
21
-7482.404334
0
LINE
8
Layer 1
10
-20721.737365
20
-7482.404334
11
-20726.861015
21
-7484.076473
0
LINE
8
Layer 1
10
-20726.861015
20
-7484.076473
11
-20731.893883
21
-7485.996189
0
LINE
8
Layer 1
10
-20731.893883
20
-7485.996189
11
-20736.826843
21
-7488.159745
0
LINE
8
Layer 1
10
-20736.826843
20
-7488.159745
11
-20741.650771
21
-7490.563401
0
LINE
8
Layer 1
10
-20741.650771
20
-7490.563401
11
-20746.356542
21
-7493.203420
0
LINE
8
Layer 1
10
-20746.356542
20
-7493.203420
11
-20750.935031
21
-7496.076061
0
LINE
8
Layer 1
10
-20750.935031
20
-7496.076061
11
-20755.377114
21
-7499.177588
0
LINE
8
Layer 1
10
-20755.377114
20
-7499.177588
11
-20759.673666
21
-7502.504260
0
LINE
8
Layer 1
10
-20759.673666
20
-7502.504260
11
-20763.815563
21
-7506.052340
0
LINE
8
Layer 1
10
-20763.815563
20
-7506.052340
11
-20767.793679
21
-7509.818089
0
LINE
8
Layer 1
10
-20767.793679
20
-7509.818089
11
-20771.579711
21
-7513.776907
0
LINE
8
Layer 1
10
-20771.579711
20
-7513.776907
11
-20775.148914
21
-7517.900615
0
LINE
8
Layer 1
10
-20775.148914
20
-7517.900615
11
-20778.497503
21
-7522.180108
0
LINE
8
Layer 1
10
-20778.497503
20
-7522.180108
11
-20781.621693
21
-7526.606282
0
LINE
8
Layer 1
10
-20781.621693
20
-7526.606282
11
-20784.517698
21
-7531.170029
0
LINE
8
Layer 1
10
-20784.517698
20
-7531.170029
11
-20787.181733
21
-7535.862245
0
LINE
8
Layer 1
10
-20787.181733
20
-7535.862245
11
-20789.610013
21
-7540.673825
0
LINE
8
Layer 1
10
-20789.610013
20
-7540.673825
11
-20791.798753
21
-7545.595663
0
LINE
8
Layer 1
10
-20791.798753
20
-7545.595663
11
-20793.744168
21
-7550.618653
0
LINE
8
Layer 1
10
-20793.744168
20
-7550.618653
11
-20795.442471
21
-7555.733690
0
LINE
8
Layer 1
10
-20795.442471
20
-7555.733690
11
-20796.889880
21
-7560.931669
0
LINE
8
Layer 1
10
-20796.889880
20
-7560.931669
11
-20798.082607
21
-7566.203485
0
LINE
8
Layer 1
10
-20798.082607
20
-7566.203485
11
-20799.016867
21
-7571.540031
0
LINE
8
Layer 1
10
-20799.016867
20
-7571.540031
11
-20799.688877
21
-7576.932202
0
LINE
8
Layer 1
10
-20799.688877
20
-7576.932202
11
-20800.094849
21
-7582.370894
0
LINE
8
Layer 1
10
-20800.094849
20
-7582.370894
11
-20800.231000
21
-7587.847000
0
LINE
8
Layer 1
10
-20800.500000
20
-9971.210000
11
-20800.446169
21
-9976.724136
0
LINE
8
Layer 1
10
-20800.446169
20
-9976.724136
11
-20800.118415
21
-9982.204285
0
LINE
8
Layer 1
10
-20800.118415
20
-9982.204285
11
-20799.520481
21
-9987.641116
0
LINE
8
Layer 1
10
-20799.520481
20
-9987.641116
11
-20798.656107
21
-9993.025297
0
LINE
8
Layer 1
10
-20798.656107
20
-9993.025297
11
-20797.529033
21
-9998.347496
0
LINE
8
Layer 1
10
-20797.529033
20
-9998.347496
11
-20796.143001
21
-10003.598381
0
LINE
8
Layer 1
10
-20796.143001
20
-10003.598381
11
-20794.501750
21
-10008.768620
0
LINE
8
Layer 1
10
-20794.501750
20
-10008.768620
11
-20792.609023
21
-10013.848883
0
LINE
8
Layer 1
10
-20792.609023
20
-10013.848883
11
-20790.468559
21
-10018.829837
0
LINE
8
Layer 1
10
-20790.468559
20
-10018.829837
11
-20788.084100
21
-10023.702150
0
LINE
8
Layer 1
10
-20788.084100
20
-10023.702150
11
-20785.459385
21
-10028.456490
0
LINE
8
Layer 1
10
-20785.459385
20
-10028.456490
11
-20782.598157
21
-10033.083527
0
LINE
8
Layer 1
10
-20782.598157
20
-10033.083527
11
-20779.504155
21
-10037.573927
0
LINE
8
Layer 1
10
-20779.504155
20
-10037.573927
11
-20776.181121
21
-10041.918361
0
LINE
8
Layer 1
10
-20776.181121
20
-10041.918361
11
-20772.632795
21
-10046.107494
0
LINE
8
Layer 1
10
-20772.632795
20
-10046.107494
11
-20768.862919
21
-10050.131997
0
LINE
8
Layer 1
10
-20768.862919
20
-10050.131997
11
-20764.896425
21
-10053.962862
0
LINE
8
Layer 1
10
-20764.896425
20
-10053.962862
11
-20760.761938
21
-10057.574714
0
LINE
8
Layer 1
10
-20760.761938
20
-10057.574714
11
-20756.468732
21
-10060.963671
0
LINE
8
Layer 1
10
-20756.468732
20
-10060.963671
11
-20752.026079
21
-10064.125851
0
LINE
8
Layer 1
10
-20752.026079
20
-10064.125851
11
-20747.443253
21
-10067.057369
0
LINE
8
Layer 1
10
-20747.443253
20
-10067.057369
11
-20742.729528
21
-10069.754345
0
LINE
8
Layer 1
10
-20742.729528
20
-10069.754345
11
-20737.894177
21
-10072.212894
0
LINE
8
Layer 1
10
-20737.894177
20
-10072.212894
11
-20732.946474
21
-10074.429134
0
LINE
8
Layer 1
10
-20732.946474
20
-10074.429134
11
-20727.895692
21
-10076.399182
0
LINE
8
Layer 1
10
-20727.895692
20
-10076.399182
11
-20722.751106
21
-10078.119156
0
LINE
8
Layer 1
10
-20722.751106
20
-10078.119156
11
-20717.521988
21
-10079.585173
0
LINE
8
Layer 1
10
-20717.521988
20
-10079.585173
11
-20712.217612
21
-10080.793349
0
LINE
8
Layer 1
10
-20712.217612
20
-10080.793349
11
-20706.847251
21
-10081.739803
0
LINE
8
Layer 1
10
-20706.847251
20
-10081.739803
11
-20701.420180
21
-10082.420651
0
LINE
8
Layer 1
10
-20701.420180
20
-10082.420651
11
-20695.945672
21
-10082.832011
0
LINE
8
Layer 1
10
-20695.945672
20
-10082.832011
11
-20690.433000
21
-10082.970000
0
LINE
8
Layer 1
10
-5169.950000
20
-7963.760000
11
-4984.248000
21
-9895.850000
0
LINE
8
Layer 1
10
-4984.250000
20
-9895.860000
11
11101.600000
21
-9895.860000
0
LINE
8
Layer 1
10
11213.600000
20
-9785.790000
11
11212.753334
21
-7409.480000
0
LINE
8
Layer 1
10
11102.700000
20
-7297.720000
11
3903.490000
21
-7297.720000
0
LINE
8
Layer 1
10
3903.490000
20
-7297.720000
11
-3699.570000
21
-7960.942000
0
LINE
8
Layer 1
10
-3699.580000
20
-7960.940000
11
-5169.960000
21
-7963.762220
0
LINE
8
Layer 1
10
11101.600000
20
-9895.860000
11
11107.114136
21
-9895.806169
0
LINE
8
Layer 1
10
11107.114136
20
-9895.806169
11
11112.594285
21
-9895.478415
0
LINE
8
Layer 1
10
11112.594285
20
-9895.478415
11
11118.031116
21
-9894.880481
0
LINE
8
Layer 1
10
11118.031116
20
-9894.880481
11
11123.415297
21
-9894.016107
0
LINE
8
Layer 1
10
11123.415297
20
-9894.016107
11
11128.737496
21
-9892.889033
0
LINE
8
Layer 1
10
11128.737496
20
-9892.889033
11
11133.988381
21
-9891.503001
0
LINE
8
Layer 1
10
11133.988381
20
-9891.503001
11
11139.158620
21
-9889.861750
0
LINE
8
Layer 1
10
11139.158620
20
-9889.861750
11
11144.238883
21
-9887.969023
0
LINE
8
Layer 1
10
11144.238883
20
-9887.969023
11
11149.219837
21
-9885.828559
0
LINE
8
Layer 1
10
11149.219837
20
-9885.828559
11
11154.092150
21
-9883.444100
0
LINE
8
Layer 1
10
11154.092150
20
-9883.444100
11
11158.846490
21
-9880.819385
0
LINE
8
Layer 1
10
11158.846490
20
-9880.819385
11
11163.473527
21
-9877.958157
0
LINE
8
Layer 1
10
11163.473527
20
-9877.958157
11
11167.963927
21
-9874.864155
0
LINE
8
Layer 1
10
11167.963927
20
-9874.864155
11
11172.308361
21
-9871.541121
0
LINE
8
Layer 1
10
11172.308361
20
-9871.541121
11
11176.497494
21
-9867.992795
0
LINE
8
Layer 1
10
11176.497494
20
-9867.992795
11
11180.521997
21
-9864.222919
0
LINE
8
Layer 1
10
11180.521997
20
-9864.222919
11
11184.352862
21
-9860.256425
0
LINE
8
Layer 1
10
11184.352862
20
-9860.256425
11
11187.964714
21
-9856.121938
0
LINE
8
Layer 1
10
11187.964714
20
-9856.121938
11
11191.353671
21
-9851.828732
0
LINE
8
Layer 1
10
11191.353671
20
-9851.828732
11
11194.515851
21
-9847.386079
0
LINE
8
Layer 1
10
11194.515851
20
-9847.386079
11
11197.447369
21
-9842.803253
0
LINE
8
Layer 1
10
11197.447369
20
-9842.803253
11
11200.144345
21
-9838.089528
0
LINE
8
Layer 1
10
11200.144345
20
-9838.089528
11
11202.602894
21
-9833.254177
0
LINE
8
Layer 1
10
11202.602894
20
-9833.254177
11
11204.819134
21
-9828.306474
0
LINE
8
Layer 1
10
11204.819134
20
-9828.306474
11
11206.789182
21
-9823.255692
0
LINE
8
Layer 1
10
11206.789182
20
-9823.255692
11
11208.509156
21
-9818.111106
0
LINE
8
Layer 1
10
11208.509156
20
-9818.111106
11
11209.975173
21
-9812.881988
0
LINE
8
Layer 1
10
11209.975173
20
-9812.881988
11
11211.183349
21
-9807.577612
0
LINE
8
Layer 1
10
11211.183349
20
-9807.577612
11
11212.129803
21
-9802.207251
0
LINE
8
Layer 1
10
11212.129803
20
-9802.207251
11
11212.810651
21
-9796.780180
0
LINE
8
Layer 1
10
11212.810651
20
-9796.780180
11
11213.222011
21
-9791.305672
0
LINE
8
Layer 1
10
11213.222011
20
-9791.305672
11
11213.360000
21
-9785.793000
0
LINE
8
Layer 1
10
11212.800000
20
-7409.480000
11
11212.746169
21
-7403.965864
0
LINE
8
Layer 1
10
11212.746169
20
-7403.965864
11
11212.418415
21
-7398.485715
0
LINE
8
Layer 1
10
11212.418415
20
-7398.485715
11
11211.820481
21
-7393.048884
0
LINE
8
Layer 1
10
11211.820481
20
-7393.048884
11
11210.956107
21
-7387.664703
0
LINE
8
Layer 1
10
11210.956107
20
-7387.664703
11
11209.829033
21
-7382.342504
0
LINE
8
Layer 1
10
11209.829033
20
-7382.342504
11
11208.443001
21
-7377.091619
0
LINE
8
Layer 1
10
11208.443001
20
-7377.091619
11
11206.801750
21
-7371.921380
0
LINE
8
Layer 1
10
11206.801750
20
-7371.921380
11
11204.909023
21
-7366.841117
0
LINE
8
Layer 1
10
11204.909023
20
-7366.841117
11
11202.768559
21
-7361.860163
0
LINE
8
Layer 1
10
11202.768559
20
-7361.860163
11
11200.384100
21
-7356.987850
0
LINE
8
Layer 1
10
11200.384100
20
-7356.987850
11
11197.759385
21
-7352.233510
0
LINE
8
Layer 1
10
11197.759385
20
-7352.233510
11
11194.898157
21
-7347.606473
0
LINE
8
Layer 1
10
11194.898157
20
-7347.606473
11
11191.804155
21
-7343.116073
0
LINE
8
Layer 1
10
11191.804155
20
-7343.116073
11
11188.481121
21
-7338.771639
0
LINE
8
Layer 1
10
11188.481121
20
-7338.771639
11
11184.932795
21
-7334.582506
0
LINE
8
Layer 1
10
11184.932795
20
-7334.582506
11
11181.162919
21
-7330.558003
0
LINE
8
Layer 1
10
11181.162919
20
-7330.558003
11
11177.196425
21
-7326.727138
0
LINE
8
Layer 1
10
11177.196425
20
-7326.727138
11
11173.061938
21
-7323.115286
0
LINE
8
Layer 1
10
11173.061938
20
-7323.115286
11
11168.768732
21
-7319.726329
0
LINE
8
Layer 1
10
11168.768732
20
-7319.726329
11
11164.326079
21
-7316.564149
0
LINE
8
Layer 1
10
11164.326079
20
-7316.564149
11
11159.743253
21
-7313.632631
0
LINE
8
Layer 1
10
11159.743253
20
-7313.632631
11
11155.029528
21
-7310.935655
0
LINE
8
Layer 1
10
11155.029528
20
-7310.935655
11
11150.194177
21
-7308.477106
0
LINE
8
Layer 1
10
11150.194177
20
-7308.477106
11
11145.246474
21
-7306.260866
0
LINE
8
Layer 1
10
11145.246474
20
-7306.260866
11
11140.195692
21
-7304.290818
0
LINE
8
Layer 1
10
11140.195692
20
-7304.290818
11
11135.051106
21
-7302.570844
0
LINE
8
Layer 1
10
11135.051106
20
-7302.570844
11
11129.821988
21
-7301.104827
0
LINE
8
Layer 1
10
11129.821988
20
-7301.104827
11
11124.517612
21
-7299.896651
0
LINE
8
Layer 1
10
11124.517612
20
-7299.896651
11
11119.147251
21
-7298.950197
0
LINE
8
Layer 1
10
11119.147251
20
-7298.950197
11
11113.720180
21
-7298.269349
0
LINE
8
Layer 1
10
11113.720180
20
-7298.269349
11
11108.245672
21
-7297.857989
0
LINE
8
Layer 1
10
11108.245672
20
-7297.857989
11
11102.733000
21
-7297.720000
0
LINE
8
Layer 1
10
11939.200000
20
-614.985000
11
11938.917778
21
5690.415000
0
LINE
8
Layer 1
10
11938.900000
20
7667.950000
11
11938.900000
21
9745.100000
0
LINE
8
Layer 1
10
11521.200000
20
8545.090000
11
11208.000000
21
8545.090000
0
LINE
8
Layer 1
10
-2548.670000
20
-1515.270000
11
-2033.615000
21
-1516.681110
0
LINE
8
Layer 1
10
-2033.620000
20
-1516.680000
11
6924.110000
21
-733.514000
0
LINE
8
Layer 1
10
6924.110000
20
-733.518000
11
7130.132000
21
-725.051340
0
LINE
8
Layer 1
10
7130.130000
20
-725.051000
11
11827.200000
21
-725.051000
0
LINE
8
Layer 1
10
11828.800000
20
9856.860000
11
4629.640000
21
9856.860000
0
LINE
8
Layer 1
10
4629.640000
20
9856.860000
11
-2973.420000
21
9193.638000
0
LINE
8
Layer 1
10
-4443.510000
20
9190.820000
11
-3942.566000
21
3985.240000
0
LINE
8
Layer 1
10
-3942.570000
20
3985.230000
11
-2971.720000
21
3985.230000
0
LINE
8
Layer 1
10
-2971.720000
20
3985.230000
11
-2548.387000
21
-1515.280000
0
LINE
8
Layer 1
10
-2973.420000
20
9193.640000
11
-4443.800000
21
9190.817780
0
LINE
8
Layer 1
10
11827.200000
20
-725.051000
11
11832.714136
21
-724.997169
0
LINE
8
Layer 1
10
11832.714136
20
-724.997169
11
11838.194285
21
-724.669415
0
LINE
8
Layer 1
10
11838.194285
20
-724.669415
11
11843.631116
21
-724.071481
0
LINE
8
Layer 1
10
11843.631116
20
-724.071481
11
11849.015297
21
-723.207107
0
LINE
8
Layer 1
10
11849.015297
20
-723.207107
11
11854.337496
21
-722.080033
0
LINE
8
Layer 1
10
11854.337496
20
-722.080033
11
11859.588381
21
-720.694001
0
LINE
8
Layer 1
10
11859.588381
20
-720.694001
11
11864.758620
21
-719.052750
0
LINE
8
Layer 1
10
11864.758620
20
-719.052750
11
11869.838883
21
-717.160023
0
LINE
8
Layer 1
10
11869.838883
20
-717.160023
11
11874.819837
21
-715.019559
0
LINE
8
Layer 1
10
11874.819837
20
-715.019559
11
11879.692150
21
-712.635100
0
LINE
8
Layer 1
10
11879.692150
20
-712.635100
11
11884.446490
21
-710.010385
0
LINE
8
Layer 1
10
11884.446490
20
-710.010385
11
11889.073527
21
-707.149157
0
LINE
8
Layer 1
10
11889.073527
20
-707.149157
11
11893.563927
21
-704.055155
0
LINE
8
Layer 1
10
11893.563927
20
-704.055155
11
11897.908361
21
-700.732121
0
LINE
8
Layer 1
10
11897.908361
20
-700.732121
11
11902.097494
21
-697.183795
0
LINE
8
Layer 1
10
11902.097494
20
-697.183795
11
11906.121997
21
-693.413919
0
LINE
8
Layer 1
10
11906.121997
20
-693.413919
11
11909.952862
21
-689.447425
0
LINE
8
Layer 1
10
11909.952862
20
-689.447425
11
11913.564714
21
-685.312938
0
LINE
8
Layer 1
10
11913.564714
20
-685.312938
11
11916.953671
21
-681.019732
0
LINE
8
Layer 1
10
11916.953671
20
-681.019732
11
11920.115851
21
-676.577079
0
LINE
8
Layer 1
10
11920.115851
20
-676.577079
11
11923.047369
21
-671.994253
0
LINE
8
Layer 1
10
11923.047369
20
-671.994253
11
11925.744345
21
-667.280528
0
LINE
8
Layer 1
10
11925.744345
20
-667.280528
11
11928.202894
21
-662.445177
0
LINE
8
Layer 1
10
11928.202894
20
-662.445177
11
11930.419134
21
-657.497474
0
LINE
8
Layer 1
10
11930.419134
20
-657.497474
11
11932.389182
21
-652.446692
0
LINE
8
Layer 1
10
11932.389182
20
-652.446692
11
11934.109156
21
-647.302106
0
LINE
8
Layer 1
10
11934.109156
20
-647.302106
11
11935.575173
21
-642.072988
0
LINE
8
Layer 1
10
11935.575173
20
-642.072988
11
11936.783349
21
-636.768612
0
LINE
8
Layer 1
10
11936.783349
20
-636.768612
11
11937.729803
21
-631.398251
0
LINE
8
Layer 1
10
11937.729803
20
-631.398251
11
11938.410651
21
-625.971180
0
LINE
8
Layer 1
10
11938.410651
20
-625.971180
11
11938.822011
21
-620.496672
0
LINE
8
Layer 1
10
11938.822011
20
-620.496672
11
11938.960000
21
-614.984000
0
LINE
8
Layer 1
10
11938.900000
20
9745.100000
11
11938.846169
21
9750.614136
0
LINE
8
Layer 1
10
11938.846169
20
9750.614136
11
11938.518415
21
9756.094285
0
LINE
8
Layer 1
10
11938.518415
20
9756.094285
11
11937.920481
21
9761.531116
0
LINE
8
Layer 1
10
11937.920481
20
9761.531116
11
11937.056107
21
9766.915297
0
LINE
8
Layer 1
10
11937.056107
20
9766.915297
11
11935.929033
21
9772.237496
0
LINE
8
Layer 1
10
11935.929033
20
9772.237496
11
11934.543001
21
9777.488381
0
LINE
8
Layer 1
10
11934.543001
20
9777.488381
11
11932.901750
21
9782.658620
0
LINE
8
Layer 1
10
11932.901750
20
9782.658620
11
11931.009023
21
9787.738883
0
LINE
8
Layer 1
10
11931.009023
20
9787.738883
11
11928.868559
21
9792.719837
0
LINE
8
Layer 1
10
11928.868559
20
9792.719837
11
11926.484100
21
9797.592150
0
LINE
8
Layer 1
10
11926.484100
20
9797.592150
11
11923.859385
21
9802.346490
0
LINE
8
Layer 1
10
11923.859385
20
9802.346490
11
11920.998157
21
9806.973527
0
LINE
8
Layer 1
10
11920.998157
20
9806.973527
11
11917.904155
21
9811.463927
0
LINE
8
Layer 1
10
11917.904155
20
9811.463927
11
11914.581121
21
9815.808361
0
LINE
8
Layer 1
10
11914.581121
20
9815.808361
11
11911.032795
21
9819.997494
0
LINE
8
Layer 1
10
11911.032795
20
9819.997494
11
11907.262919
21
9824.021997
0
LINE
8
Layer 1
10
11907.262919
20
9824.021997
11
11903.296425
21
9827.852862
0
LINE
8
Layer 1
10
11903.296425
20
9827.852862
11
11899.161938
21
9831.464714
0
LINE
8
Layer 1
10
11899.161938
20
9831.464714
11
11894.868732
21
9834.853671
0
LINE
8
Layer 1
10
11894.868732
20
9834.853671
11
11890.426079
21
9838.015851
0
LINE
8
Layer 1
10
11890.426079
20
9838.015851
11
11885.843253
21
9840.947369
0
LINE
8
Layer 1
10
11885.843253
20
9840.947369
11
11881.129528
21
9843.644345
0
LINE
8
Layer 1
10
11881.129528
20
9843.644345
11
11876.294177
21
9846.102894
0
LINE
8
Layer 1
10
11876.294177
20
9846.102894
11
11871.346474
21
9848.319134
0
LINE
8
Layer 1
10
11871.346474
20
9848.319134
11
11866.295692
21
9850.289182
0
LINE
8
Layer 1
10
11866.295692
20
9850.289182
11
11861.151106
21
9852.009156
0
LINE
8
Layer 1
10
11861.151106
20
9852.009156
11
11855.921988
21
9853.475173
0
LINE
8
Layer 1
10
11855.921988
20
9853.475173
11
11850.617612
21
9854.683349
0
LINE
8
Layer 1
10
11850.617612
20
9854.683349
11
11845.247251
21
9855.629803
0
LINE
8
Layer 1
10
11845.247251
20
9855.629803
11
11839.820180
21
9856.310651
0
LINE
8
Layer 1
10
11839.820180
20
9856.310651
11
11834.345672
21
9856.722011
0
LINE
8
Layer 1
10
11834.345672
20
9856.722011
11
11828.833000
21
9856.860000
0
LINE
8
Layer 1
10
11938.900000
20
7667.950000
11
7798.700000
21
7662.587780
0
LINE
8
Layer 1
10
7798.710000
20
7662.590000
11
7798.710000
21
5690.420000
0
LINE
8
Layer 1
10
7798.710000
20
5690.420000
11
11938.900000
21
5690.420000
0
LINE
8
Layer 1
10
11208.000000
20
8089.590000
11
11521.200000
21
8089.590000
0
LINE
8
Layer 1
10
11521.200000
20
8089.590000
11
11521.200000
21
8545.090000
0
LINE
8
Layer 1
10
11208.000000
20
8545.090000
11
11208.000000
21
8089.590000
0
LINE
8
Layer 1
10
-20844.800000
20
5566.810000
11
-20844.800000
21
-741.138000
0
LINE
8
Layer 1
10
-20001.800000
20
7966.260000
11
-20001.800000
21
8421.760000
0
LINE
8
Layer 1
10
-16717.900000
20
7542.640000
11
-20844.600000
21
7542.640000
0
LINE
8
Layer 1
10
-20734.800000
20
-852.898000
11
-14427.400000
21
-852.898000
0
LINE
8
Layer 1
10
-14427.400000
20
-852.898000
11
-13584.967000
21
-1005.298000
0
LINE
8
Layer 1
10
-13585.000000
20
-1005.300000
11
-6206.310000
21
-1648.766000
0
LINE
8
Layer 1
10
-6741.080000
20
9053.090000
11
-7075.513000
21
9051.678890
0
LINE
8
Layer 1
10
-7075.510000
20
9051.680000
11
-14819.680000
21
9726.191000
0
LINE
8
Layer 1
10
-14819.700000
20
9726.190000
11
-20734.230000
21
9725.907778
0
LINE
8
Layer 1
10
-20844.600000
20
9615.840000
11
-20844.600000
21
7542.640000
0
LINE
8
Layer 1
10
-6206.270000
20
-1648.760000
11
-4845.960000
21
-1652.993330
0
LINE
8
Layer 1
10
-5269.580000
20
3847.510000
11
-4846.247000
21
-1653.000000
0
LINE
8
Layer 1
10
-6741.360000
20
9053.090000
11
-6240.416000
21
3847.510000
0
LINE
8
Layer 1
10
-6240.420000
20
3847.510000
11
-5269.580000
21
3847.510000
0
LINE
8
Layer 1
10
-20734.200000
20
9725.910000
11
-20739.676730
21
9725.801840
0
LINE
8
Layer 1
10
-20739.676730
20
9725.801840
11
-20745.117426
21
9725.423670
0
LINE
8
Layer 1
10
-20745.117426
20
9725.423670
11
-20750.512962
21
9724.779228
0
LINE
8
Layer 1
10
-20750.512962
20
9724.779228
11
-20755.854213
21
9723.872255
0
LINE
8
Layer 1
10
-20755.854213
20
9723.872255
11
-20761.132056
21
9722.706488
0
LINE
8
Layer 1
10
-20761.132056
20
9722.706488
11
-20766.337365
21
9721.285666
0
LINE
8
Layer 1
10
-20766.337365
20
9721.285666
11
-20771.461015
21
9719.613527
0
LINE
8
Layer 1
10
-20771.461015
20
9719.613527
11
-20776.493883
21
9717.693811
0
LINE
8
Layer 1
10
-20776.493883
20
9717.693811
11
-20781.426843
21
9715.530255
0
LINE
8
Layer 1
10
-20781.426843
20
9715.530255
11
-20786.250771
21
9713.126599
0
LINE
8
Layer 1
10
-20786.250771
20
9713.126599
11
-20790.956542
21
9710.486580
0
LINE
8
Layer 1
10
-20790.956542
20
9710.486580
11
-20795.535031
21
9707.613939
0
LINE
8
Layer 1
10
-20795.535031
20
9707.613939
11
-20799.977114
21
9704.512412
0
LINE
8
Layer 1
10
-20799.977114
20
9704.512412
11
-20804.273666
21
9701.185740
0
LINE
8
Layer 1
10
-20804.273666
20
9701.185740
11
-20808.415563
21
9697.637660
0
LINE
8
Layer 1
10
-20808.415563
20
9697.637660
11
-20812.393679
21
9693.871911
0
LINE
8
Layer 1
10
-20812.393679
20
9693.871911
11
-20816.179711
21
9689.913093
0
LINE
8
Layer 1
10
-20816.179711
20
9689.913093
11
-20819.748914
21
9685.789385
0
LINE
8
Layer 1
10
-20819.748914
20
9685.789385
11
-20823.097503
21
9681.509892
0
LINE
8
Layer 1
10
-20823.097503
20
9681.509892
11
-20826.221693
21
9677.083718
0
LINE
8
Layer 1
10
-20826.221693
20
9677.083718
11
-20829.117698
21
9672.519971
0
LINE
8
Layer 1
10
-20829.117698
20
9672.519971
11
-20831.781733
21
9667.827755
0
LINE
8
Layer 1
10
-20831.781733
20
9667.827755
11
-20834.210013
21
9663.016175
0
LINE
8
Layer 1
10
-20834.210013
20
9663.016175
11
-20836.398753
21
9658.094337
0
LINE
8
Layer 1
10
-20836.398753
20
9658.094337
11
-20838.344168
21
9653.071347
0
LINE
8
Layer 1
10
-20838.344168
20
9653.071347
11
-20840.042471
21
9647.956310
0
LINE
8
Layer 1
10
-20840.042471
20
9647.956310
11
-20841.489880
21
9642.758331
0
LINE
8
Layer 1
10
-20841.489880
20
9642.758331
11
-20842.682607
21
9637.486515
0
LINE
8
Layer 1
10
-20842.682607
20
9637.486515
11
-20843.616867
21
9632.149969
0
LINE
8
Layer 1
10
-20843.616867
20
9632.149969
11
-20844.288877
21
9626.757798
0
LINE
8
Layer 1
10
-20844.288877
20
9626.757798
11
-20844.694849
21
9621.319106
0
LINE
8
Layer 1
10
-20844.694849
20
9621.319106
11
-20844.831000
21
9615.843000
0
LINE
8
Layer 1
10
-20844.800000
20
-741.138000
11
-20844.746169
21
-746.652136
0
LINE
8
Layer 1
10
-20844.746169
20
-746.652136
11
-20844.418415
21
-752.132285
0
LINE
8
Layer 1
10
-20844.418415
20
-752.132285
11
-20843.820481
21
-757.569116
0
LINE
8
Layer 1
10
-20843.820481
20
-757.569116
11
-20842.956107
21
-762.953297
0
LINE
8
Layer 1
10
-20842.956107
20
-762.953297
11
-20841.829033
21
-768.275496
0
LINE
8
Layer 1
10
-20841.829033
20
-768.275496
11
-20840.443001
21
-773.526381
0
LINE
8
Layer 1
10
-20840.443001
20
-773.526381
11
-20838.801750
21
-778.696620
0
LINE
8
Layer 1
10
-20838.801750
20
-778.696620
11
-20836.909023
21
-783.776883
0
LINE
8
Layer 1
10
-20836.909023
20
-783.776883
11
-20834.768559
21
-788.757837
0
LINE
8
Layer 1
10
-20834.768559
20
-788.757837
11
-20832.384100
21
-793.630150
0
LINE
8
Layer 1
10
-20832.384100
20
-793.630150
11
-20829.759385
21
-798.384490
0
LINE
8
Layer 1
10
-20829.759385
20
-798.384490
11
-20826.898157
21
-803.011527
0
LINE
8
Layer 1
10
-20826.898157
20
-803.011527
11
-20823.804155
21
-807.501927
0
LINE
8
Layer 1
10
-20823.804155
20
-807.501927
11
-20820.481121
21
-811.846361
0
LINE
8
Layer 1
10
-20820.481121
20
-811.846361
11
-20816.932795
21
-816.035494
0
LINE
8
Layer 1
10
-20816.932795
20
-816.035494
11
-20813.162919
21
-820.059997
0
LINE
8
Layer 1
10
-20813.162919
20
-820.059997
11
-20809.196425
21
-823.890862
0
LINE
8
Layer 1
10
-20809.196425
20
-823.890862
11
-20805.061938
21
-827.502714
0
LINE
8
Layer 1
10
-20805.061938
20
-827.502714
11
-20800.768732
21
-830.891671
0
LINE
8
Layer 1
10
-20800.768732
20
-830.891671
11
-20796.326079
21
-834.053851
0
LINE
8
Layer 1
10
-20796.326079
20
-834.053851
11
-20791.743253
21
-836.985369
0
LINE
8
Layer 1
10
-20791.743253
20
-836.985369
11
-20787.029528
21
-839.682345
0
LINE
8
Layer 1
10
-20787.029528
20
-839.682345
11
-20782.194177
21
-842.140894
0
LINE
8
Layer 1
10
-20782.194177
20
-842.140894
11
-20777.246474
21
-844.357134
0
LINE
8
Layer 1
10
-20777.246474
20
-844.357134
11
-20772.195692
21
-846.327182
0
LINE
8
Layer 1
10
-20772.195692
20
-846.327182
11
-20767.051106
21
-848.047156
0
LINE
8
Layer 1
10
-20767.051106
20
-848.047156
11
-20761.821988
21
-849.513173
0
LINE
8
Layer 1
10
-20761.821988
20
-849.513173
11
-20756.517612
21
-850.721349
0
LINE
8
Layer 1
10
-20756.517612
20
-850.721349
11
-20751.147251
21
-851.667803
0
LINE
8
Layer 1
10
-20751.147251
20
-851.667803
11
-20745.720180
21
-852.348651
0
LINE
8
Layer 1
10
-20745.720180
20
-852.348651
11
-20740.245672
21
-852.760011
0
LINE
8
Layer 1
10
-20740.245672
20
-852.760011
11
-20734.733000
21
-852.898000
0
LINE
8
Layer 1
10
-20844.800000
20
5566.810000
11
-16717.900000
21
5566.810000
0
LINE
8
Layer 1
10
-20001.800000
20
8421.760000
11
-20315.100000
21
8421.760000
0
LINE
8
Layer 1
10
-20315.100000
20
8421.760000
11
-20315.100000
21
7966.260000
0
LINE
8
Layer 1
10
-16717.900000
20
5566.810000
11
-16717.900000
21
7542.640000
0
LINE
8
Layer 1
10
-20315.100000
20
7966.260000
11
-20001.800000
21
7966.260000
0
LINE
8
Layer 1
10
3931.350000
20
17475.400000
11
3930.221110
21
7118.700000
0
LINE
8
Layer 1
10
3930.360000
20
7118.750000
11
3930.413208
21
7113.233592
0
LINE
8
Layer 1
10
3930.413208
20
7113.233592
11
3930.740564
21
7107.751180
0
LINE
8
Layer 1
10
3930.740564
20
7107.751180
11
3931.338324
21
7102.312107
0
LINE
8
Layer 1
10
3931.338324
20
7102.312107
11
3932.202742
21
7096.925714
0
LINE
8
Layer 1
10
3932.202742
20
7096.925714
11
3933.330072
21
7091.601346
0
LINE
8
Layer 1
10
3933.330072
20
7091.601346
11
3934.716569
21
7086.348345
0
LINE
8
Layer 1
10
3934.716569
20
7086.348345
11
3936.358487
21
7081.176054
0
LINE
8
Layer 1
10
3936.358487
20
7081.176054
11
3938.252080
21
7076.093815
0
LINE
8
Layer 1
10
3938.252080
20
7076.093815
11
3940.393603
21
7071.110973
0
LINE
8
Layer 1
10
3940.393603
20
7071.110973
11
3942.779311
21
7066.236869
0
LINE
8
Layer 1
10
3942.779311
20
7066.236869
11
3945.405457
21
7061.480846
0
LINE
8
Layer 1
10
3945.405457
20
7061.480846
11
3948.268297
21
7056.852248
0
LINE
8
Layer 1
10
3948.268297
20
7056.852248
11
3951.364083
21
7052.360417
0
LINE
8
Layer 1
10
3951.364083
20
7052.360417
11
3954.689072
21
7048.014696
0
LINE
8
Layer 1
10
3954.689072
20
7048.014696
11
3958.239517
21
7043.824429
0
LINE
8
Layer 1
10
3958.239517
20
7043.824429
11
3962.011673
21
7039.798957
0
LINE
8
Layer 1
10
3962.011673
20
7039.798957
11
3965.980570
21
7035.967320
0
LINE
8
Layer 1
10
3965.980570
20
7035.967320
11
3970.117543
21
7032.354917
0
LINE
8
Layer 1
10
3970.117543
20
7032.354917
11
3974.413307
21
7028.965632
0
LINE
8
Layer 1
10
3974.413307
20
7028.965632
11
3978.858576
21
7025.803350
0
LINE
8
Layer 1
10
3978.858576
20
7025.803350
11
3983.444062
21
7022.871954
0
LINE
8
Layer 1
10
3983.444062
20
7022.871954
11
3988.160481
21
7020.175329
0
LINE
8
Layer 1
10
3988.160481
20
7020.175329
11
3992.998547
21
7017.717359
0
LINE
8
Layer 1
10
3992.998547
20
7017.717359
11
3997.948972
21
7015.501929
0
LINE
8
Layer 1
10
3997.948972
20
7015.501929
11
4003.002471
21
7013.532921
0
LINE
8
Layer 1
10
4003.002471
20
7013.532921
11
4008.149758
21
7011.814222
0
LINE
8
Layer 1
10
4008.149758
20
7011.814222
11
4013.381546
21
7010.349714
0
LINE
8
Layer 1
10
4013.381546
20
7010.349714
11
4018.688551
21
7009.143283
0
LINE
8
Layer 1
10
4018.688551
20
7009.143283
11
4024.061484
21
7008.198811
0
LINE
8
Layer 1
10
4024.061484
20
7008.198811
11
4029.491061
21
7007.520184
0
LINE
8
Layer 1
10
4029.491061
20
7007.520184
11
4034.967995
21
7007.111286
0
LINE
8
Layer 1
10
4034.967995
20
7007.111286
11
4040.483000
21
7006.976000
0
LINE
8
Layer 1
10
4042.120000
20
17585.800000
11
4036.642367
21
17585.691800
0
LINE
8
Layer 1
10
4036.642367
20
17585.691800
11
4031.200788
21
17585.313501
0
LINE
8
Layer 1
10
4031.200788
20
17585.313501
11
4025.804390
21
17584.668847
0
LINE
8
Layer 1
10
4025.804390
20
17584.668847
11
4020.462303
21
17583.761576
0
LINE
8
Layer 1
10
4020.462303
20
17583.761576
11
4015.183655
21
17582.595431
0
LINE
8
Layer 1
10
4015.183655
20
17582.595431
11
4009.977576
21
17581.174152
0
LINE
8
Layer 1
10
4009.977576
20
17581.174152
11
4004.853194
21
17579.501481
0
LINE
8
Layer 1
10
4004.853194
20
17579.501481
11
3999.819639
21
17577.581158
0
LINE
8
Layer 1
10
3999.819639
20
17577.581158
11
3994.886038
21
17575.416924
0
LINE
8
Layer 1
10
3994.886038
20
17575.416924
11
3990.061521
21
17573.012521
0
LINE
8
Layer 1
10
3990.061521
20
17573.012521
11
3985.355217
21
17570.371689
0
LINE
8
Layer 1
10
3985.355217
20
17570.371689
11
3980.776254
21
17567.498170
0
LINE
8
Layer 1
10
3980.776254
20
17567.498170
11
3976.333761
21
17564.395704
0
LINE
8
Layer 1
10
3976.333761
20
17564.395704
11
3972.036868
21
17561.068032
0
LINE
8
Layer 1
10
3972.036868
20
17561.068032
11
3967.894703
21
17557.518897
0
LINE
8
Layer 1
10
3967.894703
20
17557.518897
11
3963.916394
21
17553.752037
0
LINE
8
Layer 1
10
3963.916394
20
17553.752037
11
3960.130258
21
17549.792070
0
LINE
8
Layer 1
10
3960.130258
20
17549.792070
11
3956.561047
21
17545.667191
0
LINE
8
Layer 1
10
3956.561047
20
17545.667191
11
3953.212546
21
17541.386509
0
LINE
8
Layer 1
10
3953.212546
20
17541.386509
11
3950.088541
21
17536.959137
0
LINE
8
Layer 1
10
3950.088541
20
17536.959137
11
3947.192817
21
17532.394184
0
LINE
8
Layer 1
10
3947.192817
20
17532.394184
11
3944.529159
21
17527.700761
0
LINE
8
Layer 1
10
3944.529159
20
17527.700761
11
3942.101353
21
17522.887978
0
LINE
8
Layer 1
10
3942.101353
20
17522.887978
11
3939.913184
21
17517.964946
0
LINE
8
Layer 1
10
3939.913184
20
17517.964946
11
3937.968438
21
17512.940776
0
LINE
8
Layer 1
10
3937.968438
20
17512.940776
11
3936.270899
21
17507.824579
0
LINE
8
Layer 1
10
3936.270899
20
17507.824579
11
3934.824352
21
17502.625464
0
LINE
8
Layer 1
10
3934.824352
20
17502.625464
11
3933.632584
21
17497.352542
0
LINE
8
Layer 1
10
3933.632584
20
17497.352542
11
3932.699380
21
17492.014924
0
LINE
8
Layer 1
10
3932.699380
20
17492.014924
11
3932.028524
21
17486.621721
0
LINE
8
Layer 1
10
3932.028524
20
17486.621721
11
3931.623802
21
17481.182043
0
LINE
8
Layer 1
10
3931.623802
20
17481.182043
11
3931.489000
21
17475.705000
0
LINE
8
Layer 1
10
9956.510000
20
17586.100000
11
4041.980000
21
17585.817778
0
LINE
8
Layer 1
10
17700.700000
20
16911.500000
11
9956.510000
21
17586.100000
0
LINE
8
Layer 1
10
18034.800000
20
16913.000000
11
17700.649000
21
16911.588890
0
LINE
8
Layer 1
10
18568.800000
20
6211.100000
11
19929.110000
21
6206.866670
0
LINE
8
Layer 1
10
11190.100000
20
6854.570000
11
18568.790000
21
6211.104000
0
LINE
8
Layer 1
10
10347.700000
20
7006.970000
11
11190.133000
21
6854.570000
0
LINE
8
Layer 1
10
4040.290000
20
7006.970000
11
10347.700000
21
7006.970000
0
LINE
8
Layer 1
10
19506.300000
20
11707.400000
11
19929.069000
21
6206.890000
0
LINE
8
Layer 1
10
18535.800000
20
11707.400000
11
19506.600000
21
11707.400000
0
LINE
8
Layer 1
10
18034.800000
20
16913.000000
11
18535.744000
21
11707.420000
0
LINE
8
Layer 1
10
14492.700000
20
8387.320000
11
16042.660000
21
8251.289000
0
LINE
8
Layer 1
10
16729.600000
20
6629.640000
11
16865.067000
21
8179.600000
0
LINE
8
Layer 1
10
11856.700000
20
8617.890000
11
13406.660000
21
8481.859000
0
LINE
8
Layer 1
10
13271.200000
20
6932.460000
11
11721.240000
21
7067.927000
0
LINE
8
Layer 1
10
13406.700000
20
8481.860000
11
13271.233000
21
6932.460000
0
LINE
8
Layer 1
10
15907.200000
20
6701.890000
11
14357.240000
21
6837.357000
0
LINE
8
Layer 1
10
16042.600000
20
8251.280000
11
15907.133000
21
6701.880000
0
LINE
8
Layer 1
10
18279.500000
20
6494.170000
11
16729.540000
21
6629.637000
0
LINE
8
Layer 1
10
11721.200000
20
7067.930000
11
11856.667000
21
8617.890000
0
LINE
8
Layer 1
10
18415.000000
20
8043.570000
11
18279.533000
21
6494.170000
0
LINE
8
Layer 1
10
14357.200000
20
6837.350000
11
14492.667000
21
8387.310000
0
LINE
8
Layer 1
10
16865.000000
20
8179.600000
11
18414.960000
21
8043.569000
0
LINE
8
Layer 1
10
16734.900000
20
10316.300000
11
18284.860000
21
10180.269000
0
LINE
8
Layer 1
10
14490.100000
20
8950.910000
11
14625.567000
21
10500.870000
0
LINE
8
Layer 1
10
10407.500000
20
10869.700000
11
11957.460000
21
10733.669000
0
LINE
8
Layer 1
10
10272.000000
20
9319.780000
11
10407.467000
21
10869.740000
0
LINE
8
Layer 1
10
16175.600000
20
10364.800000
11
16040.133000
21
8815.400000
0
LINE
8
Layer 1
10
11957.500000
20
10733.700000
11
11822.033000
21
9184.300000
0
LINE
8
Layer 1
10
13931.300000
20
8999.740000
11
12381.340000
21
9135.207000
0
LINE
8
Layer 1
10
18284.900000
20
10180.300000
11
18149.433000
21
8630.900000
0
LINE
8
Layer 1
10
12381.400000
20
9135.200000
11
12516.867000
21
10685.160000
0
LINE
8
Layer 1
10
12516.800000
20
10685.200000
11
14066.760000
21
10549.169000
0
LINE
8
Layer 1
10
18149.400000
20
8630.870000
11
16599.440000
21
8766.337000
0
LINE
8
Layer 1
10
14625.600000
20
10500.900000
11
16175.560000
21
10364.869000
0
LINE
8
Layer 1
10
16040.100000
20
8815.450000
11
14490.140000
21
8950.917000
0
LINE
8
Layer 1
10
11822.000000
20
9184.310000
11
10272.040000
21
9319.777000
0
LINE
8
Layer 1
10
14066.800000
20
10549.100000
11
13931.333000
21
8999.700000
0
LINE
8
Layer 1
10
16599.500000
20
8766.340000
11
16734.967000
21
10316.300000
0
LINE
8
Layer 1
10
16182.000000
20
12489.400000
11
17731.960000
21
12353.369000
0
LINE
8
Layer 1
10
13937.300000
20
11124.000000
11
14072.767000
21
12673.960000
0
LINE
8
Layer 1
10
9854.630000
20
13042.800000
11
11404.590000
21
12906.769000
0
LINE
8
Layer 1
10
9719.160000
20
11492.900000
11
9854.627000
21
13042.860000
0
LINE
8
Layer 1
10
15622.700000
20
12538.000000
11
15487.233000
21
10988.600000
0
LINE
8
Layer 1
10
11404.600000
20
12906.800000
11
11269.133000
21
11357.400000
0
LINE
8
Layer 1
10
13378.500000
20
11172.800000
11
11828.540000
21
11308.267000
0
LINE
8
Layer 1
10
17732.000000
20
12353.400000
11
17596.533000
21
10804.000000
0
LINE
8
Layer 1
10
11828.500000
20
11308.300000
11
11963.967000
21
12858.260000
0
LINE
8
Layer 1
10
11964.000000
20
12858.300000
11
13513.960000
21
12722.269000
0
LINE
8
Layer 1
10
17596.500000
20
10804.000000
11
16046.540000
21
10939.467000
0
LINE
8
Layer 1
10
14072.700000
20
12674.000000
11
15622.660000
21
12537.969000
0
LINE
8
Layer 1
10
15487.200000
20
10988.600000
11
13937.240000
21
11124.067000
0
LINE
8
Layer 1
10
11269.100000
20
11357.400000
11
9719.140000
21
11492.867000
0
LINE
8
Layer 1
10
16046.600000
20
10939.400000
11
16182.067000
21
12489.360000
0
LINE
8
Layer 1
10
13513.900000
20
12722.200000
11
13378.433000
21
11172.800000
0
LINE
8
Layer 1
10
9375.980000
20
13647.700000
11
9511.447000
21
15197.660000
0
LINE
8
Layer 1
10
10925.900000
20
13512.200000
11
9375.940000
21
13647.667000
0
LINE
8
Layer 1
10
13170.700000
20
14877.000000
11
13035.233000
21
13327.600000
0
LINE
8
Layer 1
10
9511.450000
20
15197.600000
11
11061.410000
21
15061.569000
0
LINE
8
Layer 1
10
11061.400000
20
15061.600000
11
10925.933000
21
13512.200000
0
LINE
8
Layer 1
10
13035.300000
20
13327.600000
11
11485.340000
21
13463.067000
0
LINE
8
Layer 1
10
11485.300000
20
13463.100000
11
11620.767000
21
15013.060000
0
LINE
8
Layer 1
10
17253.400000
20
12958.700000
11
15703.440000
21
13094.167000
0
LINE
8
Layer 1
10
13594.100000
20
13278.800000
11
13729.567000
21
14828.760000
0
LINE
8
Layer 1
10
15144.000000
20
13143.300000
11
13594.040000
21
13278.767000
0
LINE
8
Layer 1
10
11620.800000
20
15013.000000
11
13170.760000
21
14876.969000
0
LINE
8
Layer 1
10
17388.800000
20
14508.100000
11
17253.333000
21
12958.700000
0
LINE
8
Layer 1
10
13729.500000
20
14828.800000
11
15279.460000
21
14692.769000
0
LINE
8
Layer 1
10
15838.900000
20
14644.200000
11
17388.860000
21
14508.169000
0
LINE
8
Layer 1
10
15703.400000
20
13094.200000
11
15838.867000
21
14644.160000
0
LINE
8
Layer 1
10
15279.500000
20
14692.700000
11
15144.033000
21
13143.300000
0
LINE
8
Layer 1
10
13008.700000
20
15454.400000
11
11458.740000
21
15589.867000
0
LINE
8
Layer 1
10
9349.450000
20
15774.500000
11
9484.917000
21
17324.460000
0
LINE
8
Layer 1
10
10899.400000
20
15639.000000
11
9349.440000
21
15774.467000
0
LINE
8
Layer 1
10
13144.200000
20
17003.800000
11
13008.733000
21
15454.400000
0
LINE
8
Layer 1
10
9484.920000
20
17324.400000
11
11034.880000
21
17188.369000
0
LINE
8
Layer 1
10
11594.200000
20
17139.900000
11
13144.160000
21
17003.869000
0
LINE
8
Layer 1
10
11458.800000
20
15589.900000
11
11594.267000
21
17139.860000
0
LINE
8
Layer 1
10
11034.900000
20
17188.400000
11
10899.433000
21
15639.000000
0
LINE
8
Layer 1
10
15676.900000
20
15221.000000
11
15812.367000
21
16770.960000
0
LINE
8
Layer 1
10
17226.800000
20
15085.600000
11
15676.840000
21
15221.067000
0
LINE
8
Layer 1
10
15812.300000
20
16771.000000
11
17362.260000
21
16634.969000
0
LINE
8
Layer 1
10
17362.300000
20
16635.000000
11
17226.833000
21
15085.600000
0
LINE
8
Layer 1
10
13567.500000
20
15405.600000
11
13702.967000
21
16955.560000
0
LINE
8
Layer 1
10
15117.500000
20
15270.100000
11
13567.540000
21
15405.567000
0
LINE
8
Layer 1
10
15253.000000
20
16819.500000
11
15117.533000
21
15270.100000
0
LINE
8
Layer 1
10
13703.000000
20
16955.600000
11
15252.960000
21
16819.569000
0
LINE
8
Layer 1
10
7069.380000
20
7283.550000
11
5513.770000
21
7283.550000
0
LINE
8
Layer 1
10
5513.770000
20
8839.720000
11
7069.380000
21
8839.155556
0
LINE
8
Layer 1
10
7069.380000
20
8839.150000
11
7069.380000
21
7283.550000
0
LINE
8
Layer 1
10
5513.770000
20
7283.550000
11
5513.770000
21
8839.150000
0
LINE
8
Layer 1
10
9714.930000
20
7283.550000
11
8159.320000
21
7283.550000
0
LINE
8
Layer 1
10
8159.320000
20
8839.720000
11
9714.930000
21
8839.155556
0
LINE
8
Layer 1
10
9714.930000
20
8839.150000
11
9714.930000
21
7283.550000
0
LINE
8
Layer 1
10
8159.320000
20
7283.550000
11
8159.320000
21
8839.150000
0
LINE
8
Layer 1
10
9556.320000
20
10955.800000
11
9556.320000
21
9400.210000
0
LINE
8
Layer 1
10
8000.710000
20
9400.210000
11
8000.710000
21
10955.800000
0
LINE
8
Layer 1
10
9556.320000
20
9400.210000
11
8000.710000
21
9400.210000
0
LINE
8
Layer 1
10
8000.710000
20
10956.400000
11
9556.320000
21
10955.835556
0
LINE
8
Layer 1
10
6603.710000
20
9400.210000
11
5048.100000
21
9400.210000
0
LINE
8
Layer 1
10
5048.100000
20
9400.210000
11
5048.100000
21
10955.800000
0
LINE
8
Layer 1
10
5048.100000
20
10956.400000
11
6603.710000
21
10955.835556
0
LINE
8
Layer 1
10
6603.710000
20
10955.800000
11
6603.710000
21
9400.210000
0
LINE
8
Layer 1
10
4783.380000
20
13073.000000
11
6338.990000
21
13072.435556
0
LINE
8
Layer 1
10
6338.990000
20
13072.500000
11
6338.990000
21
11516.900000
0
LINE
8
Layer 1
10
6338.990000
20
11516.900000
11
4783.380000
21
11516.900000
0
LINE
8
Layer 1
10
4783.380000
20
11516.900000
11
4783.380000
21
13072.500000
0
LINE
8
Layer 1
10
9026.870000
20
13072.500000
11
9026.870000
21
11516.900000
0
LINE
8
Layer 1
10
7471.260000
20
13073.000000
11
9026.870000
21
13072.435556
0
LINE
8
Layer 1
10
9026.870000
20
11516.900000
11
7471.260000
21
11516.900000
0
LINE
8
Layer 1
10
7471.260000
20
11516.900000
11
7471.260000
21
13072.500000
0
LINE
8
Layer 1
10
8667.320000
20
13633.500000
11
7111.710000
21
13633.500000
0
LINE
8
Layer 1
10
7111.710000
20
13633.500000
11
7111.710000
21
15189.100000
0
LINE
8
Layer 1
10
8667.320000
20
15189.100000
11
8667.320000
21
13633.500000
0
LINE
8
Layer 1
10
7111.710000
20
15189.700000
11
8667.320000
21
15189.135556
0
LINE
8
Layer 1
10
4687.990000
20
15189.700000
11
6243.600000
21
15189.135556
0
LINE
8
Layer 1
10
6243.600000
20
15189.100000
11
6243.600000
21
13633.500000
0
LINE
8
Layer 1
10
4687.990000
20
13633.500000
11
4687.990000
21
15189.100000
0
LINE
8
Layer 1
10
6243.600000
20
13633.500000
11
4687.990000
21
13633.500000
0
LINE
8
Layer 1
10
8709.650000
20
17305.800000
11
8709.650000
21
15750.200000
0
LINE
8
Layer 1
10
7154.050000
20
15750.200000
11
7154.050000
21
17305.800000
0
LINE
8
Layer 1
10
8709.650000
20
15750.200000
11
7154.050000
21
15750.200000
0
LINE
8
Layer 1
10
7154.050000
20
17306.400000
11
8709.660000
21
17305.835556
0
LINE
8
Layer 1
10
4931.830000
20
17306.400000
11
6487.440000
21
17305.835556
0
LINE
8
Layer 1
10
4931.830000
20
15750.200000
11
4931.830000
21
17305.800000
0
LINE
8
Layer 1
10
6487.440000
20
17305.800000
11
6487.440000
21
15750.200000
0
LINE
8
Layer 1
10
6487.440000
20
15750.200000
11
4931.830000
21
15750.200000
0
LINE
8
Layer 1
10
32072.000000
20
7177.990000
11
36769.000000
21
7177.990000
0
LINE
8
Layer 1
10
31866.000000
20
7169.530000
11
32072.022000
21
7177.996660
0
LINE
8
Layer 1
10
36769.000000
20
7178.160000
11
36774.515297
21
7178.213871
0
LINE
8
Layer 1
10
36774.515297
20
7178.213871
11
36779.996585
21
7178.541779
0
LINE
8
Layer 1
10
36779.996585
20
7178.541779
11
36785.434527
21
7179.139978
0
LINE
8
Layer 1
10
36785.434527
20
7179.139978
11
36790.819785
21
7180.004726
0
LINE
8
Layer 1
10
36790.819785
20
7180.004726
11
36796.143022
21
7181.132279
0
LINE
8
Layer 1
10
36796.143022
20
7181.132279
11
36801.394902
21
7182.518892
0
LINE
8
Layer 1
10
36801.394902
20
7182.518892
11
36806.566086
21
7184.160822
0
LINE
8
Layer 1
10
36806.566086
20
7184.160822
11
36811.647238
21
7186.054325
0
LINE
8
Layer 1
10
36811.647238
20
7186.054325
11
36816.629021
21
7188.195656
0
LINE
8
Layer 1
10
36816.629021
20
7188.195656
11
36821.502096
21
7190.581074
0
LINE
8
Layer 1
10
36821.502096
20
7190.581074
11
36826.257128
21
7193.206832
0
LINE
8
Layer 1
10
36826.257128
20
7193.206832
11
36830.884779
21
7196.069188
0
LINE
8
Layer 1
10
36830.884779
20
7196.069188
11
36835.375711
21
7199.164398
0
LINE
8
Layer 1
10
36835.375711
20
7199.164398
11
36839.720587
21
7202.488717
0
LINE
8
Layer 1
10
36839.720587
20
7202.488717
11
36843.910071
21
7206.038403
0
LINE
8
Layer 1
10
36843.910071
20
7206.038403
11
36847.934825
21
7209.809711
0
LINE
8
Layer 1
10
36847.934825
20
7209.809711
11
36851.765827
21
7213.777686
0
LINE
8
Layer 1
10
36851.765827
20
7213.777686
11
36855.377692
21
7217.913683
0
LINE
8
Layer 1
10
36855.377692
20
7217.913683
11
36858.766537
21
7222.208422
0
LINE
8
Layer 1
10
36858.766537
20
7222.208422
11
36861.928479
21
7226.652622
0
LINE
8
Layer 1
10
36861.928479
20
7226.652622
11
36864.859636
21
7231.237003
0
LINE
8
Layer 1
10
36864.859636
20
7231.237003
11
36867.556124
21
7235.952285
0
LINE
8
Layer 1
10
36867.556124
20
7235.952285
11
36870.014061
21
7240.789188
0
LINE
8
Layer 1
10
36870.014061
20
7240.789188
11
36872.229564
21
7245.738431
0
LINE
8
Layer 1
10
36872.229564
20
7245.738431
11
36874.198749
21
7250.790734
0
LINE
8
Layer 1
10
36874.198749
20
7250.790734
11
36875.917734
21
7255.936818
0
LINE
8
Layer 1
10
36875.917734
20
7255.936818
11
36877.382636
21
7261.167400
0
LINE
8
Layer 1
10
36877.382636
20
7261.167400
11
36878.589572
21
7266.473203
0
LINE
8
Layer 1
10
36878.589572
20
7266.473203
11
36879.534660
21
7271.844944
0
LINE
8
Layer 1
10
36879.534660
20
7271.844944
11
36880.214015
21
7277.273344
0
LINE
8
Layer 1
10
36880.214015
20
7277.273344
11
36880.623756
21
7282.749123
0
LINE
8
Layer 1
10
36880.623756
20
7282.749123
11
36880.760000
21
7288.263000
0
LINE
8
Layer 1
10
22908.200000
20
6386.360000
11
31865.930000
21
7169.526000
0
LINE
8
Layer 1
10
22393.200000
20
6387.770000
11
22908.255000
21
6386.358890
0
LINE
8
Layer 1
10
36880.800000
20
17648.300000
11
36880.746169
21
17653.814136
0
LINE
8
Layer 1
10
36880.746169
20
17653.814136
11
36880.418415
21
17659.294285
0
LINE
8
Layer 1
10
36880.418415
20
17659.294285
11
36879.820481
21
17664.731116
0
LINE
8
Layer 1
10
36879.820481
20
17664.731116
11
36878.956107
21
17670.115297
0
LINE
8
Layer 1
10
36878.956107
20
17670.115297
11
36877.829033
21
17675.437496
0
LINE
8
Layer 1
10
36877.829033
20
17675.437496
11
36876.443001
21
17680.688381
0
LINE
8
Layer 1
10
36876.443001
20
17680.688381
11
36874.801750
21
17685.858620
0
LINE
8
Layer 1
10
36874.801750
20
17685.858620
11
36872.909023
21
17690.938883
0
LINE
8
Layer 1
10
36872.909023
20
17690.938883
11
36870.768559
21
17695.919837
0
LINE
8
Layer 1
10
36870.768559
20
17695.919837
11
36868.384100
21
17700.792150
0
LINE
8
Layer 1
10
36868.384100
20
17700.792150
11
36865.759385
21
17705.546490
0
LINE
8
Layer 1
10
36865.759385
20
17705.546490
11
36862.898157
21
17710.173527
0
LINE
8
Layer 1
10
36862.898157
20
17710.173527
11
36859.804155
21
17714.663927
0
LINE
8
Layer 1
10
36859.804155
20
17714.663927
11
36856.481121
21
17719.008361
0
LINE
8
Layer 1
10
36856.481121
20
17719.008361
11
36852.932795
21
17723.197494
0
LINE
8
Layer 1
10
36852.932795
20
17723.197494
11
36849.162919
21
17727.221997
0
LINE
8
Layer 1
10
36849.162919
20
17727.221997
11
36845.196425
21
17731.052862
0
LINE
8
Layer 1
10
36845.196425
20
17731.052862
11
36841.061938
21
17734.664714
0
LINE
8
Layer 1
10
36841.061938
20
17734.664714
11
36836.768732
21
17738.053671
0
LINE
8
Layer 1
10
36836.768732
20
17738.053671
11
36832.326079
21
17741.215851
0
LINE
8
Layer 1
10
36832.326079
20
17741.215851
11
36827.743253
21
17744.147369
0
LINE
8
Layer 1
10
36827.743253
20
17744.147369
11
36823.029528
21
17746.844345
0
LINE
8
Layer 1
10
36823.029528
20
17746.844345
11
36818.194177
21
17749.302894
0
LINE
8
Layer 1
10
36818.194177
20
17749.302894
11
36813.246474
21
17751.519134
0
LINE
8
Layer 1
10
36813.246474
20
17751.519134
11
36808.195692
21
17753.489182
0
LINE
8
Layer 1
10
36808.195692
20
17753.489182
11
36803.051106
21
17755.209156
0
LINE
8
Layer 1
10
36803.051106
20
17755.209156
11
36797.821988
21
17756.675173
0
LINE
8
Layer 1
10
36797.821988
20
17756.675173
11
36792.517612
21
17757.883349
0
LINE
8
Layer 1
10
36792.517612
20
17757.883349
11
36787.147251
21
17758.829803
0
LINE
8
Layer 1
10
36787.147251
20
17758.829803
11
36781.720180
21
17759.510651
0
LINE
8
Layer 1
10
36781.720180
20
17759.510651
11
36776.245672
21
17759.922011
0
LINE
8
Layer 1
10
36776.245672
20
17759.922011
11
36770.733000
21
17760.060000
0
LINE
8
Layer 1
10
21968.400000
20
17096.700000
11
20498.020000
21
17093.877780
0
LINE
8
Layer 1
10
29571.500000
20
17759.900000
11
21968.440000
21
17096.678000
0
LINE
8
Layer 1
10
36770.700000
20
17759.900000
11
29571.500000
21
17759.900000
0
LINE
8
Layer 1
10
21969.600000
20
11888.600000
11
22393.215000
21
6387.810000
0
LINE
8
Layer 1
10
20998.700000
20
11888.600000
11
21969.600000
21
11888.600000
0
LINE
8
Layer 1
10
36880.800000
20
7288.060000
11
36880.800000
21
17648.100000
0
LINE
8
Layer 1
10
20497.800000
20
17094.100000
11
20998.744000
21
11888.520000
0
LINE
8
Layer 1
10
32402.200000
20
9003.410000
11
33957.810000
21
9002.845556
0
LINE
8
Layer 1
10
33957.800000
20
7447.230000
11
32402.200000
21
7447.230000
0
LINE
8
Layer 1
10
32402.200000
20
7447.230000
11
32402.200000
21
9002.840000
0
LINE
8
Layer 1
10
33957.800000
20
9002.840000
11
33957.800000
21
7447.230000
0
LINE
8
Layer 1
10
36074.500000
20
9003.410000
11
36074.500000
21
7447.800000
0
LINE
8
Layer 1
10
34518.900000
20
7447.800000
11
34518.900000
21
9003.410000
0
LINE
8
Layer 1
10
34518.900000
20
9003.970000
11
36074.510000
21
9003.405556
0
LINE
8
Layer 1
10
36074.500000
20
7447.800000
11
34518.900000
21
7447.800000
0
LINE
8
Layer 1
10
36339.200000
20
11120.100000
11
36339.200000
21
9564.460000
0
LINE
8
Layer 1
10
34783.600000
20
9564.460000
11
34783.600000
21
11120.100000
0
LINE
8
Layer 1
10
34783.600000
20
11120.600000
11
36339.210000
21
11120.035556
0
LINE
8
Layer 1
10
36339.200000
20
9564.460000
11
34783.600000
21
9564.460000
0
LINE
8
Layer 1
10
33957.800000
20
11119.500000
11
33957.800000
21
9563.900000
0
LINE
8
Layer 1
10
32402.200000
20
9563.900000
11
32402.200000
21
11119.500000
0
LINE
8
Layer 1
10
32402.200000
20
11120.100000
11
33957.810000
21
11119.535556
0
LINE
8
Layer 1
10
33957.800000
20
9563.900000
11
32402.200000
21
9563.900000
0
LINE
8
Layer 1
10
33279.900000
20
11681.100000
11
31724.300000
21
11681.100000
0
LINE
8
Layer 1
10
31724.300000
20
13237.300000
11
33279.910000
21
13236.735556
0
LINE
8
Layer 1
10
31724.300000
20
11681.100000
11
31724.300000
21
13236.700000
0
LINE
8
Layer 1
10
33279.900000
20
13236.700000
11
33279.900000
21
11681.100000
0
LINE
8
Layer 1
10
35926.000000
20
11680.600000
11
34370.400000
21
11680.600000
0
LINE
8
Layer 1
10
34370.400000
20
13236.700000
11
35926.010000
21
13236.135556
0
LINE
8
Layer 1
10
34370.400000
20
11680.600000
11
34370.400000
21
13236.200000
0
LINE
8
Layer 1
10
35926.000000
20
13236.200000
11
35926.000000
21
11680.600000
0
LINE
8
Layer 1
10
35492.500000
20
15352.800000
11
35492.500000
21
13797.200000
0
LINE
8
Layer 1
10
33936.900000
20
15353.400000
11
35492.510000
21
15352.835556
0
LINE
8
Layer 1
10
33936.900000
20
13797.200000
11
33936.900000
21
15352.800000
0
LINE
8
Layer 1
10
35492.500000
20
13797.200000
11
33936.900000
21
13797.200000
0
LINE
8
Layer 1
10
30984.300000
20
15354.000000
11
32539.910000
21
15353.435556
0
LINE
8
Layer 1
10
30984.300000
20
13797.800000
11
30984.300000
21
15353.400000
0
LINE
8
Layer 1
10
32539.900000
20
15353.400000
11
32539.900000
21
13797.800000
0
LINE
8
Layer 1
10
32539.900000
20
13797.800000
11
30984.300000
21
13797.800000
0
LINE
8
Layer 1
10
33037.200000
20
15913.900000
11
33037.200000
21
17469.500000
0
LINE
8
Layer 1
10
34592.800000
20
15913.900000
11
33037.200000
21
15913.900000
0
LINE
8
Layer 1
10
34592.800000
20
17469.500000
11
34592.800000
21
15913.900000
0
LINE
8
Layer 1
10
33037.200000
20
17470.100000
11
34592.810000
21
17469.535556
0
LINE
8
Layer 1
10
30920.500000
20
15914.500000
11
30920.500000
21
17470.100000
0
LINE
8
Layer 1
10
32476.100000
20
15914.500000
11
30920.500000
21
15914.500000
0
LINE
8
Layer 1
10
32476.100000
20
17470.100000
11
32476.100000
21
15914.500000
0
LINE
8
Layer 1
10
30920.500000
20
17470.600000
11
32476.110000
21
17470.035556
0
LINE
8
Layer 1
10
31563.400000
20
7438.200000
11
30014.000000
21
7302.733000
0
LINE
8
Layer 1
10
29454.700000
20
7252.500000
11
27905.300000
21
7117.033000
0
LINE
8
Layer 1
10
24710.500000
20
6837.630000
11
23161.100000
21
6702.163000
0
LINE
8
Layer 1
10
30014.000000
20
7302.740000
11
29877.969000
21
8852.140000
0
LINE
8
Layer 1
10
24575.000000
20
8386.470000
11
24710.467000
21
6837.640000
0
LINE
8
Layer 1
10
27082.300000
20
7045.350000
11
25532.900000
21
6909.883000
0
LINE
8
Layer 1
10
26946.800000
20
8594.180000
11
27082.267000
21
7045.350000
0
LINE
8
Layer 1
10
25396.900000
20
8459.280000
11
26946.860000
21
8594.182000
0
LINE
8
Layer 1
10
31428.000000
20
8987.040000
11
31563.467000
21
7438.210000
0
LINE
8
Layer 1
10
25532.900000
20
6909.880000
11
25396.869000
21
8459.280000
0
LINE
8
Layer 1
10
27905.300000
20
7117.030000
11
27769.269000
21
8666.430000
0
LINE
8
Layer 1
10
29319.200000
20
8801.340000
11
29454.667000
21
7252.510000
0
LINE
8
Layer 1
10
23025.100000
20
8251.570000
11
24575.060000
21
8386.472000
0
LINE
8
Layer 1
10
29878.000000
20
8852.140000
11
31427.960000
21
8987.042000
0
LINE
8
Layer 1
10
27769.200000
20
8666.430000
11
29319.160000
21
8801.332000
0
LINE
8
Layer 1
10
23161.100000
20
6702.170000
11
23025.069000
21
8251.570000
0
LINE
8
Layer 1
10
23823.800000
20
8842.540000
11
23687.769000
21
10391.940000
0
LINE
8
Layer 1
10
25932.500000
20
9028.240000
11
25796.469000
21
10577.640000
0
LINE
8
Layer 1
10
23687.700000
20
10391.900000
11
25237.660000
21
10526.802000
0
LINE
8
Layer 1
10
27481.900000
20
9163.710000
11
25932.500000
21
9028.243000
0
LINE
8
Layer 1
10
27346.500000
20
10712.500000
11
27481.967000
21
9163.670000
0
LINE
8
Layer 1
10
25796.500000
20
10577.600000
11
27346.460000
21
10712.502000
0
LINE
8
Layer 1
10
29455.200000
20
10895.400000
11
29590.667000
21
9346.570000
0
LINE
8
Layer 1
10
25373.200000
20
8978.010000
11
23823.800000
21
8842.543000
0
LINE
8
Layer 1
10
31564.000000
20
11081.100000
11
31699.467000
21
9532.270000
0
LINE
8
Layer 1
10
31699.500000
20
9532.290000
11
30150.100000
21
9396.823000
0
LINE
8
Layer 1
10
28041.300000
20
9211.120000
11
27905.269000
21
10760.520000
0
LINE
8
Layer 1
10
27905.300000
20
10760.500000
11
29455.260000
21
10895.402000
0
LINE
8
Layer 1
10
30014.000000
20
10946.200000
11
31563.960000
21
11081.102000
0
LINE
8
Layer 1
10
30150.100000
20
9396.820000
11
30014.069000
21
10946.220000
0
LINE
8
Layer 1
10
25237.700000
20
10526.800000
11
25373.167000
21
8977.970000
0
LINE
8
Layer 1
10
29590.700000
20
9346.590000
11
28041.300000
21
9211.123000
0
LINE
8
Layer 1
10
28954.000000
20
11521.400000
11
27404.600000
21
11385.933000
0
LINE
8
Layer 1
10
27268.600000
20
12935.300000
11
28818.560000
21
13070.202000
0
LINE
8
Layer 1
10
30927.300000
20
13255.900000
11
31062.767000
21
11707.070000
0
LINE
8
Layer 1
10
27404.600000
20
11385.900000
11
27268.569000
21
12935.300000
0
LINE
8
Layer 1
10
25159.800000
20
12752.400000
11
26709.760000
21
12887.302000
0
LINE
8
Layer 1
10
31062.800000
20
11707.100000
11
29513.400000
21
11571.633000
0
LINE
8
Layer 1
10
29513.400000
20
11571.600000
11
29377.369000
21
13121.000000
0
LINE
8
Layer 1
10
24736.500000
20
11152.800000
11
23187.100000
21
11017.333000
0
LINE
8
Layer 1
10
24601.000000
20
12701.600000
11
24736.467000
21
11152.770000
0
LINE
8
Layer 1
10
29377.300000
20
13121.000000
11
30927.260000
21
13255.902000
0
LINE
8
Layer 1
10
28818.500000
20
13070.200000
11
28953.967000
21
11521.370000
0
LINE
8
Layer 1
10
26709.800000
20
12887.300000
11
26845.267000
21
11338.470000
0
LINE
8
Layer 1
10
25295.800000
20
11203.000000
11
25159.769000
21
12752.400000
0
LINE
8
Layer 1
10
23051.000000
20
12566.700000
11
24600.960000
21
12701.602000
0
LINE
8
Layer 1
10
23187.100000
20
11017.300000
11
23051.069000
21
12566.700000
0
LINE
8
Layer 1
10
26845.200000
20
11338.500000
11
25295.800000
21
11203.033000
0
LINE
8
Layer 1
10
24354.900000
20
14913.100000
11
25904.860000
21
15048.002000
0
LINE
8
Layer 1
10
28149.100000
20
13682.100000
11
26599.700000
21
13546.633000
0
LINE
8
Layer 1
10
30257.900000
20
13867.800000
11
28708.500000
21
13732.333000
0
LINE
8
Layer 1
10
28572.400000
20
15281.700000
11
30122.360000
21
15416.602000
0
LINE
8
Layer 1
10
28013.600000
20
15230.900000
11
28149.067000
21
13682.070000
0
LINE
8
Layer 1
10
22382.200000
20
13178.000000
11
22246.169000
21
14727.400000
0
LINE
8
Layer 1
10
28708.500000
20
13732.300000
11
28572.469000
21
15281.700000
0
LINE
8
Layer 1
10
26463.700000
20
15096.000000
11
28013.660000
21
15230.902000
0
LINE
8
Layer 1
10
26599.700000
20
13546.600000
11
26463.669000
21
15096.000000
0
LINE
8
Layer 1
10
23796.100000
20
14862.300000
11
23931.567000
21
13313.470000
0
LINE
8
Layer 1
10
22246.100000
20
14727.400000
11
23796.060000
21
14862.302000
0
LINE
8
Layer 1
10
24490.900000
20
13363.700000
11
24354.869000
21
14913.100000
0
LINE
8
Layer 1
10
25904.900000
20
15048.000000
11
26040.367000
21
13499.170000
0
LINE
8
Layer 1
10
26040.300000
20
13499.200000
11
24490.900000
21
13363.733000
0
LINE
8
Layer 1
10
30122.400000
20
15416.600000
11
30257.867000
21
13867.770000
0
LINE
8
Layer 1
10
23931.600000
20
13313.500000
11
22382.200000
21
13178.033000
0
LINE
8
Layer 1
10
28598.400000
20
17408.500000
11
30148.360000
21
17543.402000
0
LINE
8
Layer 1
10
26625.700000
20
15673.400000
11
26489.669000
21
17222.800000
0
LINE
8
Layer 1
10
28039.600000
20
17357.700000
11
28175.067000
21
15808.870000
0
LINE
8
Layer 1
10
26489.600000
20
17222.800000
11
28039.560000
21
17357.702000
0
LINE
8
Layer 1
10
28734.400000
20
15859.100000
11
28598.369000
21
17408.500000
0
LINE
8
Layer 1
10
30148.400000
20
17543.400000
11
30283.867000
21
15994.570000
0
LINE
8
Layer 1
10
30283.800000
20
15994.600000
11
28734.400000
21
15859.133000
0
LINE
8
Layer 1
10
28175.100000
20
15808.900000
11
26625.700000
21
15673.433000
0
LINE
8
Layer 1
10
24516.900000
20
15490.600000
11
24380.869000
21
17040.000000
0
LINE
8
Layer 1
10
25930.800000
20
17174.900000
11
26066.267000
21
15626.070000
0
LINE
8
Layer 1
10
24380.900000
20
17040.000000
11
25930.860000
21
17174.902000
0
LINE
8
Layer 1
10
26066.300000
20
15626.000000
11
24516.900000
21
15490.533000
0
LINE
8
Layer 1
10
22408.100000
20
15304.900000
11
22272.069000
21
16854.300000
0
LINE
8
Layer 1
10
23957.500000
20
15440.300000
11
22408.100000
21
15304.833000
0
LINE
8
Layer 1
10
23822.100000
20
16989.200000
11
23957.567000
21
15440.370000
0
LINE
8
Layer 1
10
22272.100000
20
16854.300000
11
23822.060000
21
16989.202000
 0 
ENDSEC
 0 
EOF